<?xml version="1.0" encoding="utf-8"?>
<!-- Generator: Adobe Illustrator 25.4.1, SVG Export Plug-In . SVG Version: 6.00 Build 0)  -->
<svg version="1.1" xmlns="http://www.w3.org/2000/svg" xmlns:xlink="http://www.w3.org/1999/xlink" x="0px" y="0px"
	 viewBox="0 0 841.9 595.3" style="enable-background:new 0 0 841.9 595.3;" xml:space="preserve">
<style type="text/css">
	.st0{fill:#030405;}
	.st1{fill:#FFFFFF;stroke:#FFFFFF;stroke-miterlimit:10;}
	.st2{fill:#EB6027;stroke:#EC6438;stroke-miterlimit:10;}
	.st3{font-family:'MyriadPro-Regular';}
	.st4{font-size:117.4708px;}
</style>
<g id="batarya">
	<g id="cizim">
		<path class="st0" d="M750.6,245.6l-0.1,82.7c0,0-7.5,11.6-19.8,14.4c-12.3,2.8-43.8,3.4-43.8,3.4l0,40.3c0,0-6.8,30.1-39.7,33.5
			c-32.9,3.4-138.8,2.6-138.8,2.6l-229-0.1l-135.3-0.1c0,0-52-7.6-52.6-34.9c-0.7-27.3,0.2-203.7,0.2-203.7s10.9-36.2,52-36.9
			c41-0.7,493.5,0.4,493.5,0.4s46.5,6.8,47.2,32.1c0.7,25.3,0.7,44.4,0.7,44.4l40.3,0.7c0,0,19.8,7.5,22.6,14.4
			C750.6,245.6,750.6,245.6,750.6,245.6z"/>
	</g>
	<g id="beyazlık">
		
			<rect x="674.6" y="268.7" transform="matrix(2.540442e-03 -1 1 2.540442e-03 425.7634 995.8279)" class="st1" width="75" height="31.6"/>
	</g>
	<g id="iç">
		<path class="st1" d="M654.6,182.7l-0.1,200c0,0-2.1,15.3-19.8,15.5l-483.7,0.3c0,0-24.6,3.2-25.5-19.6
			c-0.9-22.8,0.1-171.3,0.1-171.3l-0.4-22.8c0,0,2.7-13.2,20.9-14.1c18.2-0.9,198.2,0.1,198.2,0.1l239.7-0.2l46.9,0
			c0,0,15.5,3.4,19.6,7.7C654.6,182.7,654.6,182.7,654.6,182.7z"/>
	</g>
</g>
<g id="sayı">
	<text transform="matrix(1.4466 0 0 1 229.2014 317.4806)" class="st2 st3 st4">1,5V</text>
</g>
</svg>
