<?xml version="1.0" encoding="utf-8"?>
<!-- Generator: Adobe Illustrator 25.4.1, SVG Export Plug-In . SVG Version: 6.00 Build 0)  -->
<svg version="1.1" id="Layer_1" xmlns="http://www.w3.org/2000/svg" xmlns:xlink="http://www.w3.org/1999/xlink" x="0px" y="0px"
	 viewBox="0 0 595.3 841.9" style="enable-background:new 0 0 595.3 841.9;" xml:space="preserve">
<style type="text/css">
	.st0{fill:#FFFFFF;}
	.st1{fill:#201122;}
	.st2{fill:#241423;}
	.st3{fill:#201121;}
	.st4{fill:#241425;}
	.st5{fill:#231424;}
	.st6{fill:#241525;}
	.st7{opacity:0.5;fill:#FDCC1B;}
	.st8{fill:#DCDBDC;}
	.st9{fill:#DFDEDF;}
	.st10{fill:#241420;}
</style>
<path class="st0" d="M295.4,172.6c67.3,0,134.5,0,201.8,0c0,137.7,0,275.3,0,413c-136.4,0-272.7,0-409.1,0c0-137.7,0-275.3,0-413
	c67.5,0,135,0,202.6,0c-2.4,1.8-4.2,3.8-4.2,7.1c0.1,14.5,0,29,0.1,43.4c0,1.4,0.4,2.9,1.1,4.1c1.6,2.6,4.1,3.4,6.9,2.5
	c3.2-1,4.8-3.4,4.8-7c0-13.7-0.1-27.4,0.1-41C299.5,177.9,298.7,174.8,295.4,172.6z M292.6,506.4c15.4,0,30.8,0,46.2,0
	c6.5,0,8.8-2.5,9-8.9c0.2-5.7,0.3-11.4,1-17.1c1.9-14.3,6.3-27.4,17.1-37.9c23.1-22.6,33.3-50.3,31.6-82.6
	c-1.3-24.1-11-44.7-25.9-63.1c-7.5-9.3-16.9-16.5-27.3-22.3c-27.1-14.9-55.4-17.7-84.8-8c-22.4,7.4-40.1,21.1-53.2,40.8
	c-17.3,26-22.5,54.2-15.5,84.6c4.7,20.4,15,37.8,30.3,52.1c6.6,6.2,11.3,13.5,13,22.3c1.9,10,3.3,20.1,4.2,30.2
	c0.7,7.9,2.1,9.9,9.9,9.9C263.1,506.5,277.9,506.4,292.6,506.4z M293.3,514.7c-14.1,0-28.2-0.1-42.2,0c-8.9,0.1-15.5,7-15.5,15.8
	c0,9.3,6.8,15.5,17.3,15.5c26.7,0.1,53.4,0,80.1,0c2.1,0,4.3-0.1,6.3-0.7c7.8-2.1,12.2-9,11.2-17.3c-0.9-7.3-7.3-13.2-15-13.3
	C321.4,514.6,307.3,514.7,293.3,514.7z M293.4,553.7C293.4,553.7,293.4,553.6,293.4,553.7c-10.1,0-20.2-0.2-30.3,0
	c-8.8,0.2-15.2,7.1-15.1,15.7c0.1,8.8,6.8,15.4,15.8,15.4c19.5,0.1,39,0.1,58.5-0.1c2.4,0,5-0.6,7.2-1.7c6.4-3.1,9.6-10,8.1-16.9
	c-1.4-7-7.2-12.3-14.5-12.4C313.4,553.5,303.4,553.7,293.4,553.7z M411,297.7c0.8,6.5,5.9,9.4,11.5,6.4c6.6-3.5,12.9-7.5,19.4-11.2
	c5.6-3.2,11.4-6.1,17-9.3c3.9-2.2,5.3-6,3.6-9.3c-1.6-3.3-5.7-4.5-9.6-2.5c-12.5,6.6-24.9,13.3-37.2,20.2
	C413.7,293.2,412.6,295.8,411,297.7z M174.2,298.3c0.3-3.6-1.8-5.5-4.7-7.1c-12-6.4-23.9-12.9-35.9-19.4c-4.3-2.3-8.3-1.5-10,1.9
	c-1.8,3.5-0.3,7.4,3.9,9.8c4.1,2.3,8.4,4.5,12.5,6.8c8,4.5,15.8,9.2,23.9,13.6C168.8,306.7,174,303.6,174.2,298.3z M194.4,202
	c-7.1-0.1-9.8,5.2-6.6,10.5c7.3,12,14.8,23.8,22.3,35.7c2.5,4,6.3,5.1,9.4,3c3.4-2.2,4-6.1,1.5-10.1c-3.2-5.2-6.6-10.2-9.8-15.4
	c-4.1-6.5-7.9-13.1-12.1-19.5C197.7,204.2,195.4,202.9,194.4,202z M373.2,253.7c1.2-1,3.8-2.3,5.3-4.3c7.4-10.7,14.4-21.5,21.6-32.3
	c0.7-1.1,1.3-2.3,1.8-3.5c1.6-3.8,0.6-7.2-2.4-8.9c-3-1.7-6.4-1-8.6,2.4c-8,12.1-15.8,24.3-23.7,36.5c-0.5,0.8-0.8,1.7-1,2.6
	C365.3,249.6,368.3,253.6,373.2,253.7z"/>
<path class="st1" d="M295.4,172.6c3.3,2.2,4.1,5.3,4.1,9.2c-0.2,13.7-0.1,27.4-0.1,41c0,3.5-1.6,5.9-4.8,7c-2.8,0.9-5.4,0.1-6.9-2.5
	c-0.7-1.2-1.1-2.7-1.1-4.1c-0.1-14.5,0-29-0.1-43.4c0-3.4,1.8-5.3,4.2-7.1C292.2,172.6,293.8,172.6,295.4,172.6z"/>
<path class="st2" d="M292.6,506.4c-14.7,0-29.5,0-44.2,0c-7.9,0-9.3-2-9.9-9.9c-0.9-10.1-2.2-20.2-4.2-30.2
	c-1.7-8.8-6.5-16.1-13-22.3c-15.3-14.3-25.6-31.7-30.3-52.1c-7-30.3-1.8-58.5,15.5-84.6c13.1-19.7,30.8-33.4,53.2-40.8
	c29.4-9.7,57.7-6.9,84.8,8c10.4,5.7,19.8,13,27.3,22.3c14.9,18.4,24.6,39,25.9,63.1c1.7,32.3-8.5,60-31.6,82.6
	c-10.8,10.6-15.2,23.6-17.1,37.9c-0.8,5.6-0.8,11.4-1,17.1c-0.2,6.4-2.5,8.8-9,8.9C323.4,506.5,308,506.4,292.6,506.4z M334.6,493.6
	c0.5-5.5,0.9-10.6,1.6-15.8c2.3-17,8.2-32.2,21-44.4c16.6-15.7,25.5-35.4,27.4-58c2.7-32-9-58.9-32.8-79.6
	c-35.9-31.3-91.5-27.6-122.8,5c-21.9,22.8-31.2,49.4-26.8,80.6c2.7,19.4,10.9,36.4,24.9,50c12,11.7,19.6,25.2,22.1,41.6
	c1.1,6.8,1.8,13.6,2.8,20.4C279.4,493.6,306.8,493.6,334.6,493.6z"/>
<path class="st1" d="M293.3,514.7c14.1,0,28.2-0.1,42.2,0c7.7,0.1,14.1,6,15,13.3c1,8.3-3.4,15.2-11.2,17.3c-2,0.5-4.2,0.7-6.3,0.7
	c-26.7,0-53.4,0.1-80.1,0c-10.5,0-17.3-6.2-17.3-15.5c0-8.8,6.6-15.7,15.5-15.8C265.1,514.6,279.2,514.7,293.3,514.7z M292.6,533
	c13.7,0,27.3,0.1,41-0.1c1.3,0,2.6-1.5,3.9-2.3c-1.3-1-2.6-2.1-3.9-3.1c-0.2-0.1-0.5,0-0.8,0c-26.5,0-53.1,0-79.6,0.1
	c-1.6,0-4.4,1.5-4.5,2.5c-0.3,2.8,2.2,2.9,4.5,2.9C266.3,533,279.5,533,292.6,533z"/>
<path class="st3" d="M293.4,553.7c10,0,19.9-0.2,29.9,0.1c7.3,0.2,13.1,5.4,14.5,12.4c1.4,6.9-1.8,13.9-8.1,16.9
	c-2.2,1-4.8,1.7-7.2,1.7c-19.5,0.1-39,0.1-58.5,0.1c-9,0-15.7-6.7-15.8-15.4c-0.1-8.6,6.3-15.4,15.1-15.7
	C273.3,553.4,283.4,553.6,293.4,553.7C293.4,553.6,293.4,553.7,293.4,553.7z M292.9,572c9.3,0,18.6,0,27.8,0c2,0,4.3,0.2,4.3-2.8
	c-0.1-2.8-2.3-2.7-4.4-2.7c-18.3,0-36.6-0.1-54.9,0.1c-1.5,0-4.3,1.5-4.4,2.5c-0.3,2.9,2.3,2.9,4.5,2.9
	C274.9,572,283.9,572,292.9,572z"/>
<path class="st4" d="M411,297.7c1.6-1.9,2.7-4.5,4.7-5.6c12.3-6.9,24.8-13.6,37.2-20.2c3.9-2,7.9-0.8,9.6,2.5
	c1.7,3.3,0.3,7.1-3.6,9.3c-5.6,3.2-11.4,6.1-17,9.3c-6.5,3.7-12.8,7.6-19.4,11.2C416.9,307.1,411.8,304.2,411,297.7z"/>
<path class="st5" d="M174.2,298.3c-0.2,5.3-5.4,8.4-10.3,5.7c-8-4.4-15.9-9.1-23.9-13.6c-4.1-2.3-8.4-4.5-12.5-6.8
	c-4.3-2.4-5.8-6.3-3.9-9.8c1.8-3.4,5.7-4.2,10-1.9c12,6.4,23.9,12.9,35.9,19.4C172.4,292.7,174.4,294.7,174.2,298.3z"/>
<path class="st6" d="M194.4,202c1,0.9,3.3,2.2,4.6,4.2c4.2,6.4,8,13,12.1,19.5c3.2,5.2,6.6,10.2,9.8,15.4c2.5,4.1,1.9,7.9-1.5,10.1
	c-3.1,2-6.9,0.9-9.4-3c-7.5-11.9-15-23.7-22.3-35.7C184.6,207.3,187.3,202,194.4,202z"/>
<path class="st6" d="M373.2,253.7c-4.9-0.1-8-4-7.2-7.6c0.2-0.9,0.5-1.8,1-2.6c7.9-12.2,15.7-24.4,23.7-36.5
	c2.3-3.4,5.6-4.1,8.6-2.4c3.1,1.7,4,5.1,2.4,8.9c-0.5,1.2-1,2.4-1.8,3.5c-7.1,10.8-14.2,21.7-21.6,32.3
	C377.1,251.4,374.5,252.7,373.2,253.7z"/>
<path class="st7" d="M334.6,493.6c-27.8,0-55.1,0-82.6,0c-0.9-6.9-1.7-13.7-2.8-20.4c-2.6-16.4-10.1-30-22.1-41.6
	c-14-13.6-22.2-30.6-24.9-50c-4.4-31.3,5-57.8,26.8-80.6c31.2-32.6,86.9-36.3,122.8-5c23.8,20.7,35.5,47.6,32.8,79.6
	c-1.9,22.6-10.8,42.2-27.4,58c-12.8,12.1-18.7,27.4-21,44.4C335.5,482.9,335.1,488.1,334.6,493.6z M296.1,288.2c-0.7,0-1.6,0-2.5,0
	c-6,0.2-8.4,4.8-5.9,10.2c1.5,3.2,4.1,3.3,6.9,3.5c31,2.2,52.5,17.5,63.3,46.7c2.5,6.7,2.7,14.2,3.8,21.4c0.7,4.6,3.2,7.4,6.9,7.3
	c3.8-0.2,6.3-3.3,6.2-7.8c-1.1-32-16.9-55.3-43.6-71.6C320.7,291.4,308.7,288.9,296.1,288.2z"/>
<path class="st8" d="M292.6,533c-13.1,0-26.3,0-39.4,0c-2.3,0-4.8-0.1-4.5-2.9c0.1-1,2.9-2.5,4.5-2.5c26.5-0.2,53.1-0.1,79.6-0.1
	c0.3,0,0.6-0.1,0.8,0c1.3,1,2.6,2,3.9,3.1c-1.3,0.8-2.6,2.3-3.9,2.3C319.9,533.1,306.3,533,292.6,533z"/>
<path class="st9" d="M292.9,572c-9,0-18,0-27.1,0c-2.2,0-4.8-0.1-4.5-2.9c0.1-1,2.8-2.5,4.4-2.5c18.3-0.2,36.6-0.1,54.9-0.1
	c2.1,0,4.3-0.1,4.4,2.7c0.1,2.9-2.2,2.8-4.3,2.8C311.5,572,302.2,572,292.9,572z"/>
<path class="st10" d="M296.1,288.2c12.6,0.7,24.6,3.2,35.2,9.7c26.6,16.3,42.5,39.6,43.6,71.6c0.1,4.5-2.4,7.6-6.2,7.8
	c-3.7,0.2-6.2-2.7-6.9-7.3c-1.1-7.2-1.3-14.7-3.8-21.4c-10.8-29.2-32.3-44.5-63.3-46.7c-2.8-0.2-5.4-0.2-6.9-3.5
	c-2.6-5.5-0.1-10.1,5.9-10.2C294.5,288.2,295.4,288.2,296.1,288.2z"/>
</svg>
