<?xml version="1.0" encoding="utf-8"?>
<!-- Generator: Adobe Illustrator 25.4.1, SVG Export Plug-In . SVG Version: 6.00 Build 0)  -->
<svg version="1.1" id="Layer_1" xmlns="http://www.w3.org/2000/svg" xmlns:xlink="http://www.w3.org/1999/xlink" x="0px" y="0px"
	 viewBox="0 0 841.9 595.3" style="enable-background:new 0 0 841.9 595.3;" xml:space="preserve">
<style type="text/css">
	.st0{opacity:0.75;}
	.st1{fill:#FFFFFF;}
	.st2{fill:#E73B29;}
	.st3{fill:#D82317;}
	.st4{fill:#D92617;}
	.st5{fill:#EC6046;}
</style>
<g class="st0">
	<path class="st1" d="M126.8,128.5c189.5,0,378.9,0,568.4,0c0,106.4,0,212.9,0,319.3c-189.5,0-378.9,0-568.4,0
		C126.8,341.4,126.8,235,126.8,128.5z M235.5,387.3c6.9,0,13.9,0,20.8,0c0.6,0,1.3,0.1,1.9,0.1c112.6,0,225.2,0,337.8-0.1
		c14.6,0,25.6-7.5,35.1-17.4c4.9-5.1,9.1-10.7,12.2-17c2.5-5.1,4.9-10.3,6.9-15.6c1.5-3.9,2.4-8.1,3.5-12.1
		c1.2-4.2,3.3-8.4,3.5-12.7c0.6-12.8,0.5-25.7,0.7-38.5c-0.7-5.6-0.9-11.3-2.1-16.8c-1.6-7.1-3.9-14-6.2-20.9
		c-1-3.2-2.4-6.4-4.1-9.4c-3.2-5.6-5.9-11.5-10.9-16.1c-4.5-4.2-8.4-8.8-13.1-12.7c-9.4-7.8-21.1-9.8-33-9.8
		c-116.5-0.1-233-0.1-349.5-0.1c-1.2,0-2.4,0.1-3.6,0.1c-5.3,0.1-10.6-0.1-15.8,0.5c-5.8,0.7-11.4,2.5-16.1,6.1
		c-2.5,1.6-5.2,3-7.5,4.8c-6.3,5.1-11.4,11.4-15.7,18.2c-2.3,3.6-4.4,7.3-6.1,11.2c-2.1,4.8-3.3,9.9-5.4,14.6
		c-3.3,7.2-4.6,15-5.3,22.5c-1.8,19-2.3,38,2.7,56.8c0.4,1.4,0.3,2.9,0.8,4.2c1,3.1,2.2,6.1,3.4,9.2c2.4,5.9,4.2,12.2,7.6,17.6
		c4.1,6.5,8.5,12.9,14.3,18.4c10.3,9.7,21.9,15.6,36.6,14.8c0.2,0,0.4,0,0.7,0c1.3,0,2.6,0,3.9,0
		C234.2,387.3,234.9,387.3,235.5,387.3z"/>
	<path class="st2" d="M203.6,195.1c4.7-3.5,10.3-5.4,16.1-6.1c5.2-0.6,10.5-0.4,15.8-0.5c0.4,0.3,0.7,0.8,1.1,0.9
		c6.2,1.7,11.8,4.4,16.7,8.5c2.8,2.3,5.8,3.5,9.9,3.5c110.4-0.1,220.8-0.1,331.3-0.1c10,0,18.7,2.9,26.7,8.6
		c10.7,7.6,18,17.6,23.9,28.7c2.3,4.4,4,9.1,5.5,13.8c2.1,6.7,3.9,13.5,5.6,20.4c0.3,1.1,0.2,2.2,1.8,1.3
		c-0.2,12.8-0.1,25.7-0.7,38.5c-0.2,4.3-2.3,8.5-3.5,12.7c-1.2,4-2,8.2-3.5,12.1c-2,5.3-4.4,10.5-6.9,15.6
		c-3.1,6.2-7.3,11.9-12.2,17c-9.4,9.9-20.4,17.4-35.1,17.4c-112.6,0.1-225.2,0.1-337.8,0.1c-0.6,0-1.3-0.1-1.9-0.1c3-3,6-5.9,8.9-9
		c6-6.4,9.7-14.1,13-21.9c2.6-6,4.4-12.4,6.2-18.7c1.4-5.1,2.1-10.3,3.2-15.4c0.2-1,0.7-1.9,0.8-2.9c0.3-2.7,0.4-5.5,0.6-8.2
		c-0.6,0-1.1,0-1.7,0c0,1.8,0.4,3.7-0.1,5.5c-1.1,4.6-2.4,9.2-3.9,13.6c-2.2,6.5-4.3,13.2-7.2,19.4c-4.8,10.1-11.5,19.1-20.2,26.5
		c-2.5,2.1-5.5,3.6-8.2,5.4c-0.2-0.3-0.4-0.5-0.6-0.8c1-0.9,2.1-1.6,2.9-2.6c4.6-5.2,9.6-10.2,13.4-15.9c3.7-5.6,6.6-11.8,9.2-18
		c2.2-5.3,3.7-10.9,5.2-16.4c1-3.9,1.4-8,2.2-12c0.8-4.4,2.4-8.7,2.3-13c-0.1-9.2,1.4-18.5-1-27.7c-1.2-4.6-1.4-9.5-2-14.2
		c-0.1-1.1,0.1-2.3-0.3-3.4c-2.3-6.6-4.3-13.2-7.1-19.6c-2.7-6.2-5.8-12.4-9.4-18.2c-4.8-7.6-10.8-14.2-18.7-19.3
		c-7-4.5-14.4-7.7-23.1-7.9C214.8,192.4,209.2,193.4,203.6,195.1z M289.9,278.9c-0.2,0-0.4,0-0.7,0c0,6.6,0,13.1,0,19.7
		c0.2,0,0.4,0,0.7,0C289.9,292.1,289.9,285.5,289.9,278.9z"/>
	<path class="st3" d="M203.6,195.1c5.6-1.8,11.2-2.8,17.1-2.6c8.7,0.3,16,3.4,23.1,7.9c7.8,5,13.9,11.7,18.7,19.3
		c3.6,5.8,6.7,12,9.4,18.2c2.8,6.4,4.8,13.1,7.1,19.6c0.4,1,0.1,2.3,0.3,3.4c0.6,4.7,0.8,9.6,2,14.2c2.4,9.2,0.9,18.5,1,27.7
		c0.1,4.3-1.5,8.7-2.3,13c-0.7,4-1.1,8.1-2.2,12c-1.5,5.5-3,11.1-5.2,16.4c-2.6,6.2-5.4,12.4-9.2,18c-3.8,5.7-8.9,10.7-13.4,15.9
		c-0.8,1-1.9,1.7-2.9,2.6c0.2,0.3,0.4,0.5,0.6,0.8c2.8-1.8,5.8-3.3,8.2-5.4c8.7-7.4,15.4-16.4,20.2-26.5c2.9-6.2,5-12.9,7.2-19.4
		c1.5-4.5,2.8-9,3.9-13.6c0.4-1.7,0.1-3.6,0.1-5.5c0.6,0,1.1,0,1.7,0c-0.2,2.7-0.3,5.5-0.6,8.2c-0.1,1-0.6,1.9-0.8,2.9
		c-1.1,5.1-1.8,10.4-3.2,15.4c-1.7,6.3-3.6,12.6-6.2,18.7c-3.3,7.8-7,15.5-13,21.9c-2.9,3.1-5.9,6-8.9,9c-6.9,0-13.9,0-20.8,0
		c-0.3-0.3-0.6-0.7-0.8-1c-0.4,0.3-0.8,0.7-1.1,1c-1.3,0-2.6,0-3.9,0c-0.2,0-0.4,0-0.7,0c-14.8,0.8-26.4-5.1-36.6-14.8
		c-5.8-5.5-10.2-11.9-14.3-18.4c-3.4-5.4-5.2-11.7-7.6-17.6c-1.2-3-2.4-6.1-3.4-9.2c-0.5-1.3-0.4-2.8-0.8-4.2
		c-5-18.7-4.5-37.8-2.7-56.8c0.7-7.5,2-15.3,5.3-22.5c2.2-4.7,3.4-9.8,5.4-14.6c1.7-3.9,3.8-7.6,6.1-11.2c4.3-6.8,9.4-13,15.7-18.2
		C198.4,198.1,201.1,196.7,203.6,195.1z"/>
	<path class="st4" d="M657.9,274.2c-1.7,0.9-1.5-0.2-1.8-1.3c-1.8-6.8-3.5-13.6-5.6-20.4c-1.5-4.7-3.2-9.5-5.5-13.8
		c-5.9-11.1-13.2-21.1-23.9-28.7c-8-5.7-16.7-8.6-26.7-8.6c-110.4,0-220.8,0-331.3,0.1c-4,0-7.1-1.2-9.9-3.5
		c-4.9-4.1-10.5-6.7-16.7-8.5c-0.4-0.1-0.7-0.6-1.1-0.9c1.2,0,2.4-0.1,3.6-0.1c116.5,0,233-0.1,349.5,0.1c11.9,0,23.6,2,33,9.8
		c4.7,3.9,8.6,8.6,13.1,12.7c4.9,4.6,7.7,10.5,10.9,16.1c1.7,3,3,6.1,4.1,9.4c2.3,6.9,4.6,13.9,6.2,20.9
		C657,262.9,657.2,268.6,657.9,274.2z"/>
	<path class="st2" d="M233.5,387.3c0.4-0.3,0.8-0.7,1.1-1c0.3,0.3,0.6,0.7,0.8,1C234.9,387.3,234.2,387.3,233.5,387.3z"/>
	<path class="st2" d="M229,387.3c0.2,0,0.4,0,0.7,0C229.4,387.3,229.2,387.3,229,387.3z"/>
	<path class="st5" d="M289.9,278.9c0,6.6,0,13.1,0,19.7c-0.2,0-0.4,0-0.7,0c0-6.6,0-13.1,0-19.7C289.5,279,289.7,279,289.9,278.9z"
		/>
</g>
</svg>
