<?xml version="1.0" encoding="utf-8"?>
<!-- Generator: Adobe Illustrator 25.4.1, SVG Export Plug-In . SVG Version: 6.00 Build 0)  -->
<svg version="1.1" id="Layer_1" xmlns="http://www.w3.org/2000/svg" xmlns:xlink="http://www.w3.org/1999/xlink" x="0px" y="0px"
	 viewBox="0 0 841.9 595.3" style="enable-background:new 0 0 841.9 595.3;" xml:space="preserve">
<style type="text/css">
	.st0{fill:#FFFFFF;}
	.st1{fill:#030405;}
</style>
<g>
	<path class="st0" d="M0,595.3C0,396.9,0,198.4,0,0c280.6,0,561.3,0,841.9,0c0,198.4,0,396.9,0,595.3
		C561.3,595.3,280.6,595.3,0,595.3z M421.5,105.6c-82.7,0-165.4-0.2-248.2,0.2c-15.9,0.1-32.1,1.4-47.6,4.7
		c-42.5,8.9-80.3,26.2-106.6,63.1c-11,15.3-18,31.8-18,50.7C1.1,269.9,1,315.5,1.3,361.2c0.1,10,1.8,20,3.4,29.9
		c2.3,13.4,9.6,24.7,17.7,34.9C37.6,444.8,57,458.7,79,468.7c30.2,13.7,61.9,19.9,95,19.8c164.1-0.1,328.2-0.1,492.2,0
		c32.7,0,64.2-5.3,94-18.7c26.6-11.9,49.7-28.3,65.5-53.7c9.5-15.2,15.1-31.2,15-49.2c-0.2-45.8,0.1-91.7-0.2-137.5
		c-0.1-8.6-1.9-17.3-3.4-25.8c-1.9-11.5-7.5-21.7-14.2-30.7c-13-17.6-29.6-31.5-49-41.9c-31.7-17-65.6-25.2-101.5-25.3
		C588.9,105.5,505.2,105.6,421.5,105.6z"/>
	<path class="st1" d="M421.5,105.6c83.7,0,167.4-0.1,251.1,0.1c35.8,0.1,69.7,8.3,101.5,25.3c19.4,10.4,36,24.3,49,41.9
		c6.7,9,12.3,19.2,14.2,30.7c1.4,8.6,3.3,17.2,3.4,25.8c0.3,45.8,0,91.7,0.2,137.5c0.1,18.1-5.5,34-15,49.2
		c-15.9,25.4-38.9,41.8-65.5,53.7c-29.8,13.4-61.4,18.7-94,18.7c-164.1-0.2-328.2-0.1-492.2,0c-33.1,0-64.8-6.2-95-19.8
		c-22-10-41.4-23.9-56.5-42.7c-8.2-10.2-15.4-21.6-17.7-34.9c-1.7-9.9-3.4-19.9-3.4-29.9C1,315.5,1.1,269.9,1.2,224.3
		c0-19,7-35.4,18-50.7c26.3-36.8,64.1-54.2,106.6-63.1c15.5-3.3,31.7-4.6,47.6-4.7C256.1,105.4,338.8,105.6,421.5,105.6z
		 M421.6,140.4C421.6,140.4,421.6,140.5,421.6,140.4c-83.9,0.1-167.7-0.4-251.6,0.3c-35.8,0.3-68.7,10.4-95.7,35.6
		c-9.7,9-17.2,19.5-20.8,32.1c-2.4,8.3-3.4,17.3-3.5,25.9c-0.4,34.6-0.4,69.2-0.1,103.8c0.1,13.6,0.9,27.2,2.4,40.6
		c0.7,6.4,2.7,13.2,5.9,18.7c9.8,16.5,23.6,28.9,40.5,38c24.3,13,50.3,18.1,77.5,18.1c125,0.1,250,0,375,0
		c40.2,0,80.4,0.5,120.6-0.2c36-0.7,69.1-10.6,96.1-35.8c10.2-9.5,17.9-21,20.9-34.8c1.9-8.7,2.9-17.7,2.9-26.6
		c0.3-36.5,0.3-73.1,0-109.6c-0.1-10.1-1.3-20.2-2.1-30.2c-1-12.5-6.9-23.2-14.5-32.3c-13-15.5-29.8-26.2-48.7-33.3
		c-19.5-7.3-39.7-10.4-60.4-10.4C584.7,140.4,503.1,140.4,421.6,140.4z"/>
	<path class="st0" d="M421.6,140.4c81.5,0,163.1,0,244.6,0c20.7,0,40.9,3.1,60.4,10.4c19,7.1,35.8,17.8,48.7,33.3
		c7.6,9.1,13.6,19.8,14.5,32.3c0.8,10.1,2,20.1,2.1,30.2c0.3,36.5,0.3,73.1,0,109.6c-0.1,8.9-1,18-2.9,26.6
		c-3.1,13.7-10.7,25.2-20.9,34.8c-27.1,25.2-60.1,35.1-96.1,35.8c-40.2,0.8-80.4,0.2-120.6,0.2c-125,0-250,0-375,0
		c-27.2,0-53.2-5.1-77.5-18.1c-17-9.1-30.8-21.5-40.5-38c-3.3-5.5-5.2-12.3-5.9-18.7c-1.5-13.5-2.2-27.1-2.4-40.6
		c-0.3-34.6-0.3-69.2,0.1-103.8c0.1-8.7,1.1-17.6,3.5-25.9c3.6-12.6,11.2-23.1,20.8-32.1c27-25.2,59.9-35.3,95.7-35.6
		C253.9,140,337.8,140.5,421.6,140.4C421.6,140.5,421.6,140.4,421.6,140.4z"/>
</g>
</svg>
